<svg  viewBox="0 0 376 196" fill="none" xmlns="http://www.w3.org/2000/svg">
<path opacity="0.2" d="M33.3368 75.0828C30.1109 80.8153 29.3154 87.0674 31.082 92.6384L32.997 98.9145C27.0934 100.773 21.1881 102.742 15.3909 104.797C9.04925 107.043 4.01151 111.431 1.56825 116.836C-0.265946 120.894 -0.436639 125.218 1.0748 128.985L17.5681 170.882C18.3806 172.907 19.5825 174.725 21.1416 176.284C26.2921 181.435 34.5433 183.02 42.1651 180.323C47.0102 178.606 51.9315 176.963 56.8433 175.414C57.6305 176.812 58.5586 178.057 59.6313 179.13C66.7145 186.213 78.0259 184.654 88.1602 182.194C96.8838 180.067 105.775 178.201 114.645 176.633C118.053 187.085 127.849 197.219 153.641 195.028C176.431 193.055 199.542 193.055 222.339 195.028C248.102 197.219 257.903 187.105 261.324 176.631C270.193 178.199 279.085 180.066 287.818 182.195C295.347 184.022 312.086 188.082 319.143 175.418C324.065 176.969 328.983 178.611 333.812 180.323C344.03 183.939 354.833 179.791 358.418 170.855L374.889 129.012C377.277 123.063 375.452 116.059 370.126 110.733C370.126 110.732 370.126 110.732 370.126 110.732C367.537 108.143 364.237 106.091 360.587 104.797C354.787 102.742 348.882 100.773 342.979 98.9141L344.88 92.6844C347.432 84.6366 344.673 75.5493 337.499 68.3749C337.498 68.374 337.498 68.374 337.497 68.3728C332.447 63.3226 325.752 59.6741 318.138 57.8233C306.465 54.977 294.573 52.4927 282.722 50.4178L283.76 44.1934C285.091 36.8359 282.968 29.0487 277.782 22.2596C276.735 20.8899 275.581 19.5769 274.332 18.3273C265.898 9.8934 253.066 4.30131 238.956 3.09148C231.892 2.47995 224.724 1.98981 217.651 1.63391L217.204 10.5294C224.171 10.8795 231.231 11.3622 238.191 11.9646C251.939 13.1438 264.095 19.0135 270.705 27.6665C273.289 31.0487 276.131 36.3901 274.993 42.6302L273.942 48.9333H273.942L253.629 170.776C252.851 175.167 250.472 188.482 223.101 186.154C199.801 184.138 176.173 184.138 152.881 186.154C125.527 188.478 123.128 175.192 122.355 170.833L102.035 48.9341L102.035 48.9345L100.995 42.6986L100.984 42.6323C99.8462 36.3918 102.687 31.0507 105.271 27.669C111.882 19.0159 124.037 13.1454 137.789 11.9654C160.192 10.0252 182.952 9.38379 205.436 10.0579L205.704 1.15537C182.875 0.470494 159.767 1.12221 137.025 3.09148C120.819 4.48193 106.303 11.6485 98.1938 22.2609C93.0082 29.0475 90.8856 36.8347 92.2152 44.1918L93.253 50.4178C81.4001 52.4935 69.5075 54.9778 57.8398 57.823C47.1096 60.4332 37.9498 66.885 33.3368 75.0828ZM357.611 113.194C360.021 114.046 362.17 115.373 363.827 117.031L363.828 117.031C366.589 119.793 367.66 123.113 366.612 125.724L350.14 167.567C348.38 171.955 342.388 173.912 336.785 171.929C331.981 170.225 327.089 168.586 322.192 167.038L330.376 140.215L340.38 107.429C346.157 109.248 351.935 111.181 357.611 113.194ZM268.859 133.581L281.258 59.2018C292.892 61.2403 304.568 63.6827 316.03 66.4777C321.973 67.922 327.359 70.8318 331.198 74.6709C331.199 74.6717 331.2 74.6722 331.2 74.6722C335.976 79.4493 337.915 85.1764 336.374 90.0385L334.466 96.2898L334.466 96.2894L312.388 168.654C310.534 174.588 306.126 177.474 289.924 173.541C281.096 171.389 272.106 169.498 263.137 167.907L268.859 133.581ZM39.1915 171.927C34.8573 173.461 30.1341 172.681 27.4389 169.986C26.7362 169.283 26.1964 168.469 25.845 167.592L9.3513 125.696C8.56906 123.745 9.10062 121.796 9.68442 120.504C11.1117 117.344 14.3571 114.611 18.3657 113.192C24.0394 111.18 29.8175 109.247 35.5944 107.428L53.7815 167.037C48.8979 168.581 44.0072 170.221 39.1915 171.927ZM59.947 66.4773C71.4046 63.6839 83.0802 61.2411 94.7173 59.2022L112.838 167.907C103.865 169.499 94.8747 171.39 86.055 173.54C75.2491 176.163 69.0418 175.945 65.929 172.832C64.9126 171.816 64.1461 170.448 63.5926 168.676L39.586 89.9929C38.2693 85.8406 39.6817 81.9679 41.0987 79.4505C44.5239 73.3646 51.5686 68.5149 59.947 66.4773Z" fill="#737373"/>
</svg>
