<svg viewBox="0 0 31 31" fill="none" xmlns="http://www.w3.org/2000/svg">
<circle cx="15.5" cy="15.5" r="15.5" fill="#8B8B8B"/>
<path d="M23.6667 20.8401L23.6662 20.8386L23.5801 20.5766C23.5799 20.5761 23.5798 20.5757 23.5797 20.5753C23.5101 20.3688 23.3465 20.1249 23.1177 19.9089C22.8886 19.6926 22.6349 19.5427 22.4238 19.4846L23.6667 20.8401ZM23.6667 20.8401C23.7321 21.0369 23.7394 21.3101 23.6727 21.5936C23.6059 21.8773 23.4779 22.1169 23.3324 22.2618L23.3317 22.2626L22.0906 23.5037C22.0911 23.5032 22.0908 23.5034 22.0896 23.5043C22.0838 23.5085 22.0578 23.5276 21.9988 23.5558C21.9332 23.5871 21.8531 23.6173 21.7695 23.6444C21.6871 23.671 21.6091 23.692 21.5512 23.7061C21.5324 23.7107 21.5164 23.7144 21.5036 23.7172C17.7274 23.7381 14.0942 22.2497 11.4223 19.5778C8.74579 16.8994 7.25586 13.2582 7.28074 9.47337C7.28337 9.46304 7.28643 9.45128 7.28991 9.4383C7.30465 9.38317 7.32614 9.30846 7.35319 9.22904C7.38066 9.14838 7.41124 9.07064 7.44283 9.00657C7.47263 8.94614 7.49248 8.92032 7.49615 8.91554C7.49677 8.91472 7.49693 8.91452 7.49658 8.91487L7.49808 8.91337L8.7393 7.67216L8.74005 7.6714C8.88639 7.52443 9.12693 7.39565 9.41061 7.32859C9.69425 7.26155 9.96737 7.26891 10.1647 7.33488L10.1651 7.33502L10.4254 7.4218C10.4255 7.42183 10.4256 7.42187 10.4257 7.42191C10.6328 7.49145 10.8782 7.6555 11.0952 7.8847C11.3124 8.11412 11.4621 8.36745 11.519 8.57721L11.5191 8.57776L12.1434 10.8682C12.1434 10.8683 12.1435 10.8685 12.1435 10.8687C12.1995 11.0763 12.1955 11.3622 12.1191 11.6561C12.0426 11.9506 11.9078 12.198 11.7597 12.3462L10.9309 13.1749L10.7263 13.3795L10.8018 13.6589C11.6618 16.8429 14.1592 19.3401 17.3429 20.202L17.6223 20.2777L17.8271 20.0729L18.6558 19.2442L18.6559 19.2442C18.8052 19.0948 19.0532 18.9597 19.3476 18.883C19.6413 18.8065 19.9263 18.8025 20.1326 18.8583C20.1328 18.8584 20.1331 18.8585 20.1334 18.8585L22.4233 19.4844L23.6667 20.8401ZM21.5528 23.7169L21.5485 23.7169L21.5528 23.7169ZM29.5625 15.5C29.5625 7.74632 23.2537 1.4375 15.5 1.4375C7.74632 1.4375 1.4375 7.74632 1.4375 15.5C1.4375 23.2537 7.74632 29.5625 15.5 29.5625C23.2537 29.5625 29.5625 23.2537 29.5625 15.5ZM0.5 15.5C0.5 7.21633 7.21633 0.5 15.5 0.5C23.7837 0.5 30.5 7.21633 30.5 15.5C30.5 23.7837 23.7837 30.5 15.5 30.5C7.21633 30.5 0.5 23.7837 0.5 15.5Z" fill="white" stroke="#8B8B8B"/>
</svg>
